HIERARCHY
ROOT Hips
{
	OFFSET 0.00000 0.00000 0.00000
	CHANNELS 6 Xposition Yposition Zposition Zrotation Yrotation Xrotation 
	JOINT LHipJoint
	{
		OFFSET 0 0 0
		CHANNELS 3 Zrotation Yrotation Xrotation
		JOINT LeftHip
		{
			OFFSET 1.34019 -1.87553 0.90315
			CHANNELS 3 Zrotation Yrotation Xrotation
			JOINT LeftKnee
			{
				OFFSET 2.55316 -7.01474 0.00000
				CHANNELS 3 Zrotation Yrotation Xrotation
				JOINT LeftAnkle
				{
					OFFSET 2.64657 -7.27139 0.00000
					CHANNELS 3 Zrotation Yrotation Xrotation
					JOINT LeftToe
					{
						OFFSET 0.24207 -0.66507 2.14489
						CHANNELS 3 Zrotation Yrotation Xrotation
						End Site
						{
							OFFSET 0.00000 -0.00000 1.12451
						}
					}
				}
			}
		}
	}
	JOINT RHipJoint
	{
		OFFSET 0 0 0
		CHANNELS 3 Zrotation Yrotation Xrotation
		JOINT RightHip
		{
			OFFSET -1.28320 -1.87553 0.90315
			CHANNELS 3 Zrotation Yrotation Xrotation
			JOINT RightKnee
			{
				OFFSET -2.60484 -7.15674 0.00000
				CHANNELS 3 Zrotation Yrotation Xrotation
				JOINT RightAnkle
				{
					OFFSET -2.60296 -7.15159 0.00000
					CHANNELS 3 Zrotation Yrotation Xrotation
					JOINT RightToe
					{
						OFFSET -0.31082 -0.85398 2.28998
						CHANNELS 3 Zrotation Yrotation Xrotation
						End Site
						{
							OFFSET -0.00000 -0.00000 1.21611
						}
					}
				}
			}
		}
	}
	JOINT lowerback
	{
		OFFSET 0 0 0
		CHANNELS 3 Zrotation Yrotation Xrotation
		JOINT Chest
		{
			OFFSET -0.00160 2.05581 -0.15156
			CHANNELS 3 Zrotation Yrotation Xrotation
			JOINT Chest2
			{
				OFFSET 0.04594 2.06326 -0.01617
				CHANNELS 3 Zrotation Yrotation Xrotation
				JOINT lowerneck
				{
					OFFSET 0 0 0
					CHANNELS 3 Zrotation Yrotation Xrotation
					JOINT Neck
					{
						OFFSET 0.03753 1.73883 0.26751
						CHANNELS 3 Zrotation Yrotation Xrotation
						JOINT Head
						{
							OFFSET -0.09795 1.76129 -0.31794
							CHANNELS 3 Zrotation Yrotation Xrotation
							End Site
							{
								OFFSET -0.03611 1.79987 -0.13846
							}
						}
					}
				}
				JOINT LeftCollar
				{
					OFFSET 0 0 0
					CHANNELS 3 Zrotation Yrotation Xrotation
					JOINT LeftShoulder
					{
						OFFSET 3.30667 1.29205 -0.22445
CHANNELS 3 Zrotation Xrotation Yrotation
						JOINT LeftElbow
						{
OFFSET 0 -4.927850 -0.000000
CHANNELS 3 Zrotation Xrotation Yrotation
							JOINT LeftWrist
							{
OFFSET 0 -3.440520 0.000000
CHANNELS 3 Zrotation Xrotation Yrotation
								JOINT lhand
								{
									OFFSET 0 0 0
CHANNELS 3 Zrotation Xrotation Yrotation
									JOINT LFingers
									{
OFFSET 0 -0.654330 0.000000
CHANNELS 3 Zrotation Xrotation Yrotation
										End Site
										{
OFFSET 0 -0.527530 0.000000
										}
									}
								}
								JOINT LThumb
								{
OFFSET 0 0.000000 0.000000
CHANNELS 3 Zrotation Xrotation Yrotation
									End Site
									{
OFFSET 0 -0.535590 0.535590
									}
								}
							}
						}
					}
				}
				JOINT RightCollar
				{
					OFFSET 0 0 0
					CHANNELS 3 Zrotation Yrotation Xrotation
					JOINT RightShoulder
					{
						OFFSET -3.20032 1.49783 -0.27688
CHANNELS 3 Zrotation Xrotation Yrotation
						JOINT RightElbow
						{
OFFSET 0 -5.091810 -0.000000
CHANNELS 3 Zrotation Xrotation Yrotation
							JOINT RightWrist
							{
OFFSET 0 -3.498650 -0.000000
CHANNELS 3 Zrotation Xrotation Yrotation
								JOINT rhand
								{
									OFFSET 0 0 0
CHANNELS 3 Zrotation Xrotation Yrotation
									JOINT RFingers
									{
OFFSET 0 -0.666410 0.000000
CHANNELS 3 Zrotation Xrotation Yrotation
										End Site
										{
OFFSET 0 -0.537280 0.000000
										}
									}
								}
								JOINT RThumb
								{
OFFSET 0 0.000000 0.000000
CHANNELS 3 Zrotation Xrotation Yrotation
									End Site
									{
OFFSET 0 -0.545480 0.545480
									}
								}
							}
						}
					}
				}
			}
		}
	}
}
MOTION
Frames: 12
Frame Time: 0.008333333333333333
-0.519400 16.773300 -29.852100 1.065100 1.976100 -2.479200 0.000000 0.000000 0.000000 0.963300 -0.021500 2.694900 0.720600 5.424300 15.122900 -1.523800 21.374700 -11.008000 0.302200 -3.534800 -9.771400 0.000000 0.000000 0.000000 -5.403200 1.307700 -0.383700 -1.140600 -6.782200 19.071700 1.795900 -22.922700 -9.777900 -0.296000 3.498600 -9.670200 -4.697500 -0.110500 6.306000 1.735600 -0.424000 0.434400 4.483200 -0.137700 -3.042700 5.983100 0.347400 -17.952500 -8.657400 1.072700 24.684900 -4.027100 -0.026200 11.017300 -0.000000 0.000000 0.000000 2.791400 9.881600 -17.784100 17.474300 -27.478800 4.303900 11.282300 -9.487300 -1.809800 0.000000 0.000000 0.000000 -7.125000 0.000000 0.000000 -12.215600 31.671400 -4.063900 -0.000000 0.000000 0.000000 -6.307500 6.507100 -4.646000 -14.343200 -23.223200 -2.962100 -20.413700 7.057300 -3.265200 0.000000 0.000000 0.000000 7.125000 0.000000 -0.000000 4.716400 26.490600 2.124200
-0.527897 16.772241 -29.841556 0.920283 2.068691 -2.465026 0.000000 0.000000 0.000000 1.130009 -0.146934 2.682284 0.723918 5.436575 15.158016 -1.528291 21.408647 -11.064737 0.284718 -3.431449 -9.482316 0.000000 0.000000 0.000000 -5.253759 1.100537 -0.421044 -1.144412 -6.793136 19.103936 1.776929 -22.810088 -9.730678 -0.302971 3.539124 -9.783430 -4.676867 -0.353701 6.165818 1.913780 -0.746717 -0.601307 4.696564 -0.247120 -4.003560 5.953787 0.636846 -13.946170 -8.574301 1.607638 23.751127 -3.837153 0.304151 9.940142 0.000000 0.000000 0.000000 2.271784 12.480588 -16.662572 17.765297 -27.855582 4.439056 11.142627 -9.511813 -1.545317 0.000000 0.000000 0.000000 -7.125000 0.000000 0.000000 -12.289089 31.404229 -4.170136 0.000000 0.000000 0.000000 -6.574624 8.988060 2.547526 -15.781304 -25.223190 -3.552298 -27.505542 -6.947881 -0.356996 0.000000 0.000000 0.000000 7.125000 0.000000 0.000000 -0.738080 29.576784 -0.277611
-0.535429 16.775141 -29.833776 0.937629 2.447666 -2.265918 0.000000 0.000000 0.000000 1.108381 -0.437194 2.355347 0.733606 5.472154 15.260239 -1.515289 21.322321 -11.009868 0.289400 -3.459771 -9.561441 0.000000 0.000000 0.000000 -5.274337 0.817060 -0.494070 -1.143006 -6.789117 19.092151 1.794747 -22.919240 -9.877397 -0.294900 3.491859 -9.651176 -4.684375 -0.155399 6.029419 1.751450 -0.481567 -0.489111 4.502725 -0.123907 -3.841315 5.958801 0.666869 -14.639794 -7.730216 1.414519 24.020898 -3.573270 0.299620 10.150987 0.000000 0.000000 0.000000 2.670783 12.058594 -16.872506 17.726951 -27.806105 4.421108 11.291895 -9.535145 -1.412885 0.000000 0.000000 0.000000 -7.125000 0.000000 0.000000 -12.153953 31.276026 -4.160639 0.000000 0.000000 0.000000 -6.281076 8.838608 2.072663 -15.987437 -25.503596 -3.640571 -27.340875 -6.137629 0.260290 0.000000 0.000000 0.000000 7.125000 0.000000 0.000000 -0.613284 30.272491 -0.220520
-0.535856 16.777736 -29.821261 0.861438 2.632124 -2.112171 0.000000 0.000000 0.000000 1.180177 -0.624259 2.160812 0.742591 5.504866 15.354318 -1.506417 21.273800 -11.070901 0.293661 -3.484746 -9.631289 0.000000 0.000000 0.000000 -5.189304 0.716074 -0.514965 -1.136000 -6.768912 19.032636 1.814107 -23.032828 -9.910446 -0.299347 3.517996 -9.724286 -4.733180 -0.114144 5.977880 1.836723 -0.427063 -0.709945 4.616595 -0.084065 -4.048150 5.879606 0.910955 -14.072683 -7.218186 1.646066 23.347891 -3.323290 0.468878 9.816910 0.000000 0.000000 0.000000 2.471610 12.683938 -16.405618 17.819468 -27.925324 4.464356 11.212703 -9.340841 -1.407742 0.000000 0.000000 0.000000 -7.125000 0.000000 0.000000 -12.215423 31.268954 -4.184712 0.000000 0.000000 0.000000 -6.650121 9.321215 1.909432 -15.871309 -25.345897 -3.590732 -27.043242 -4.858023 1.545141 0.000000 0.000000 0.000000 7.125000 0.000000 0.000000 -0.375382 31.714262 -0.122071
-0.536500 16.780441 -29.804423 0.800064 2.718084 -1.985669 0.000000 0.000000 0.000000 1.218340 -0.808614 2.099912 0.745954 5.517008 15.389260 -1.519571 21.370475 -11.207383 0.291435 -3.471593 -9.594567 0.000000 0.000000 0.000000 -5.119377 0.645750 -0.543147 -1.130935 -6.754364 18.989533 1.819040 -23.065559 -10.021350 -0.293506 3.483637 -9.628264 -4.658507 0.007462 5.959017 1.731647 -0.261384 -0.605619 4.447414 -0.009645 -3.948077 5.962623 0.885382 -14.428087 -6.873527 1.432140 22.184066 -3.214932 0.409254 9.457540 0.000000 0.000000 0.000000 2.749696 12.541131 -15.992279 17.695243 -27.765201 4.406345 10.035952 -8.760538 -2.954948 0.000000 0.000000 0.000000 -7.125000 0.000000 0.000000 -13.371027 32.768561 -4.102895 0.000000 0.000000 0.000000 -6.728199 9.485159 1.832688 -15.870543 -25.344804 -3.590366 -24.133762 -4.105294 3.755373 0.000000 0.000000 0.000000 7.125000 0.000000 0.000000 2.050345 34.088021 0.548770
-0.531273 16.780173 -29.792059 0.775520 2.522497 -1.897334 0.000000 0.000000 0.000000 1.198311 -0.808663 1.976763 0.774684 5.619724 15.685005 -1.531535 21.479926 -11.510875 0.287253 -3.446939 -9.525590 0.000000 0.000000 0.000000 -5.156879 0.508880 -0.736411 -1.122839 -6.730917 18.920644 1.779751 -22.826683 -9.739184 -0.301719 3.531978 -9.763390 -4.543489 0.098317 5.763004 1.694272 -0.123099 -0.468489 4.327651 0.046868 -3.710049 5.762629 0.834835 -14.393869 -6.851751 1.347417 20.828925 -3.151917 0.355773 8.974456 0.000000 0.000000 0.000000 2.882057 12.707683 -16.470253 17.661154 -27.721104 4.390446 9.724626 -8.937331 -2.994627 0.000000 0.000000 0.000000 -7.125000 0.000000 0.000000 -13.624334 32.796620 -4.175029 0.000000 0.000000 0.000000 -6.847062 9.468742 2.138236 -15.668622 -25.069358 -3.504357 -19.342392 -4.121778 4.623795 0.000000 0.000000 0.000000 7.125000 0.000000 0.000000 6.058474 34.828137 1.520275
-0.523453 16.778836 -29.785598 0.802495 1.992237 -1.980725 0.000000 0.000000 0.000000 1.143964 -0.492274 2.227099 0.776822 5.627284 15.706622 -1.554113 21.648924 -11.765194 0.281105 -3.409743 -9.421747 0.000000 0.000000 0.000000 -5.202741 0.826299 -0.875114 -1.136590 -6.770645 19.037612 1.744491 -22.615771 -9.641216 -0.306717 3.560426 -9.843096 -4.612668 -0.091681 5.964588 2.018799 -0.378005 -0.477137 4.732249 -0.072417 -3.802731 5.791329 1.474393 -14.414188 -7.682484 2.377675 19.940676 -3.303623 0.756567 8.759649 0.000000 0.000000 0.000000 1.830689 13.158080 -15.209188 17.683075 -27.749465 4.400680 11.269508 -8.884532 -2.319666 0.000000 0.000000 0.000000 -7.125000 0.000000 0.000000 -12.297331 32.178928 -3.938383 0.000000 0.000000 0.000000 -7.445655 9.659545 3.642234 -15.787038 -25.231031 -3.554715 -17.859664 -4.264371 4.269185 0.000000 0.000000 0.000000 7.125000 0.000000 0.000000 7.238509 34.394240 1.896736
-0.515414 16.778900 -29.763840 0.834106 1.835486 -1.888518 0.000000 0.000000 0.000000 1.088045 -0.401181 2.289072 0.769889 5.602763 15.636189 -1.561128 21.708545 -11.898656 0.277509 -3.388068 -9.361087 0.000000 0.000000 0.000000 -5.223986 1.084478 -0.856948 -1.132626 -6.759277 19.004124 1.763449 -22.736471 -9.876661 -0.292848 3.479875 -9.617675 -4.305471 0.072801 5.704656 1.823701 -0.133059 -0.429712 4.328139 0.035684 -3.635515 5.541669 1.126172 -14.808866 -7.318454 1.858142 20.053593 -3.201075 0.523323 8.825437 0.000000 0.000000 0.000000 2.354311 12.970286 -15.818245 17.665578 -27.726797 4.392513 11.998381 -9.118036 -2.329220 0.000000 0.000000 0.000000 -7.125000 0.000000 0.000000 -11.721036 32.210243 -3.737728 0.000000 0.000000 0.000000 -6.605712 9.757823 2.344116 -16.077091 -25.625047 -3.679224 -18.902508 -4.232170 4.150857 0.000000 0.000000 0.000000 7.125000 0.000000 0.000000 6.372144 34.312723 1.679884
-0.516295 16.778935 -29.747433 0.929871 1.891087 -1.784514 0.000000 0.000000 0.000000 0.951326 -0.532633 2.281029 0.768105 5.596551 15.618052 -1.571258 21.783252 -12.000727 0.275195 -3.374057 -9.321975 0.000000 0.000000 0.000000 -5.352762 0.996343 -0.939716 -1.137447 -6.773160 19.044997 1.756284 -22.695989 -9.924269 -0.292530 3.478062 -9.612655 -4.349247 -0.017994 5.364925 1.875263 -0.241430 -0.394440 4.412773 -0.024021 -3.395572 5.548916 1.192145 -15.011943 -7.295825 1.937261 20.122286 -3.187454 0.559407 8.892218 0.000000 0.000000 0.000000 2.417487 12.817180 -16.016310 17.732471 -27.813299 4.423673 11.451003 -8.873230 -2.348344 0.000000 0.000000 0.000000 -7.125000 0.000000 0.000000 -12.157732 32.213037 -3.881663 0.000000 0.000000 0.000000 -6.476973 9.574016 -0.178971 -16.207322 -25.800904 -3.735744 -18.181419 -4.319812 3.961695 0.000000 0.000000 0.000000 7.125000 0.000000 0.000000 6.942302 34.086411 1.870350
-0.521759 16.776103 -29.723013 0.834412 2.259441 -1.844002 0.000000 0.000000 0.000000 1.102563 -0.699401 2.389656 0.754380 5.547427 15.476857 -1.552732 21.650372 -11.840070 0.283117 -3.422268 -9.456716 0.000000 0.000000 0.000000 -5.186637 0.899986 -0.576706 -1.134362 -6.764251 19.018818 1.794106 -22.926947 -10.149088 -0.301348 3.529629 -9.757010 -4.344874 -0.307852 5.150700 2.098295 -0.612230 -0.394513 4.670161 -0.211408 -3.232102 5.770835 1.454975 -15.335979 -7.522779 2.307404 20.537406 -3.269189 0.718317 9.127522 0.000000 0.000000 0.000000 2.156349 13.010575 -15.677583 18.199376 -28.411759 4.643766 11.807470 -9.155686 -2.117408 0.000000 0.000000 0.000000 -7.125000 0.000000 0.000000 -11.843250 31.992889 -3.841442 0.000000 0.000000 0.000000 -7.049102 9.318710 -3.016484 -15.938087 -25.436575 -3.619342 -18.730384 -4.675272 4.038215 0.000000 0.000000 0.000000 7.125000 0.000000 0.000000 6.501692 34.187797 1.734281
-0.522912 16.779200 -29.723428 0.933395 2.203972 -1.582897 0.000000 0.000000 0.000000 0.959290 -0.779901 2.119522 0.760837 5.570489 15.543108 -1.565581 21.738920 -11.926451 0.280912 -3.408727 -9.418716 0.000000 0.000000 0.000000 -5.342414 0.835759 -0.956216 -1.139779 -6.779790 19.064582 1.774943 -22.812719 -10.091908 -0.294869 3.491862 -9.651175 -4.273970 -0.152226 4.883650 1.950223 -0.394509 -0.383100 4.454903 -0.109263 -3.096092 5.881423 1.303437 -16.106486 -7.226558 1.990042 21.147031 -3.241104 0.595666 9.456156 0.000000 0.000000 0.000000 2.657194 12.607518 -16.203106 18.244305 -28.468832 4.665091 12.098764 -9.379622 -2.084363 0.000000 0.000000 0.000000 -7.125000 0.000000 0.000000 -11.608141 31.968069 -3.769499 0.000000 0.000000 0.000000 -7.293136 9.216280 -4.145322 -15.655770 -25.051703 -3.498971 -18.663334 -4.533133 4.246854 0.000000 0.000000 0.000000 7.125000 0.000000 0.000000 6.577801 34.403717 1.720118
-0.529792 16.778838 -29.719815 0.830222 2.466381 -1.563957 0.000000 0.000000 0.000000 1.097523 -0.926030 1.984194 0.768730 5.598683 15.624357 -1.546754 21.616980 -11.858607 0.282138 -3.416277 -9.439954 0.000000 0.000000 0.000000 -5.212214 0.647987 -0.862565 -1.134069 -6.763345 19.016096 1.787670 -22.890394 -10.167369 -0.293469 3.483274 -9.627377 -4.130736 -0.322817 4.859401 2.033570 -0.610951 -0.489136 4.477285 -0.214839 -3.168988 5.606798 1.367156 -15.781715 -7.110703 2.145232 21.246338 -3.134639 0.663926 9.438066 0.000000 0.000000 0.000000 2.415229 12.942313 -15.747415 18.368947 -28.627027 4.724701 12.331967 -9.417070 -1.995544 0.000000 0.000000 0.000000 -7.125000 0.000000 0.000000 -11.411693 31.885551 -3.726546 0.000000 0.000000 0.000000 -7.611003 9.545817 -3.705688 -15.677028 -25.080753 -3.507933 -18.608912 -4.553468 4.109481 0.000000 0.000000 0.000000 7.125000 0.000000 0.000000 6.608319 34.257681 1.751746
